<?xml version="1.0" encoding="UTF-8"?>
<svg id="Layer_1" data-name="Layer 1" xmlns="http://www.w3.org/2000/svg" xmlns:xlink="http://www.w3.org/1999/xlink" viewBox="0 0 1209.79091 635.70909">
  <defs>
    <style>
      .cls-1 {
        fill: none;
        isolation: isolate;
        opacity: .61;
        stroke: url(#linear-gradient-2);
        stroke-miterlimit: 10;
        stroke-width: 3px;
      }

      .cls-2 {
        fill: url(#linear-gradient);
        stroke-width: 0px;
      }
    </style>
    <linearGradient id="linear-gradient" x1="610.67273" y1="635.70909" x2="610.67273" y2="0" gradientUnits="userSpaceOnUse">
      <stop offset="0" stop-color="#000"/>
      <stop offset="1" stop-color="#720000"/>
    </linearGradient>
    <linearGradient id="linear-gradient-2" x1="-204" y1="952.90126" x2="456.45921" y2="952.90126" gradientTransform="translate(204 1269) scale(1 -1)" gradientUnits="userSpaceOnUse">
      <stop offset="0" stop-color="#fff" stop-opacity="0"/>
      <stop offset=".15492" stop-color="#fff" stop-opacity=".04921"/>
      <stop offset=".43888" stop-color="#fff" stop-opacity=".1796"/>
      <stop offset=".81739" stop-color="#fff" stop-opacity=".38913"/>
      <stop offset="1" stop-color="#fff" stop-opacity=".5"/>
    </linearGradient>
  </defs>
  <rect class="cls-2" x="11.55455" width="1198.23636" height="635.70909"/>
  <path class="cls-1" d="M620.22272,200.54139c-18.23182,0-33.51992,12.58941-37.63892,29.55608l-.8652,4.91282-41.55091,228.28669c-6.59206,37.43248-20.78192,45.55406-58.7893,45.55406h-222.05025c-.91022,0-1.59424-.81964-1.43957-1.7175l8.19312-46.10931c2.94383-16.57226,17.34749-28.6521,34.17803-28.66504l48.29143.1362c.91084.00617,1.59488.82641,1.44017,1.71689l-6.49529,36.5999c-.15467.89726.52937,1.71689,1.44017,1.71689h75.14841c.70993,0,1.31692-.50965,1.43953-1.20724l6.67588-37.6192c.12262-.69755.72287-1.20107,1.43343-1.20724l36.25726-.21999c.70993,0,1.31698-.50962,1.4396-1.20724l13.11199-74.34786c.16145-.89729-.52937-1.7175-1.4396-1.7175l-34.8824-.02588c-.91017,0-1.59421-.81967-1.43953-1.71689l9.0127-50.60301c2.60862-14.64219,15.33974-25.31445,30.20815-25.32062l51.13171-.00677c.7106,0,1.31759-.50967,1.4402-1.20724l13.11199-74.34787c.16145-.89729-.52937-1.7175-1.43953-1.7175l-52.01676-.01294c-12.64116-.01294-22.24117-11.37541-20.13671-23.84227l21.71187-128.71433c.15528-.89114-.53554-1.70455-1.4396-1.70455l-354.65124-.43263-38.08443-.04498c-11.69836,0-22.54439,4.20907-30.96303,11.29777-8.41924,7.09556-14.41044,17.07025-16.39848,28.59416L2.07326,387.20574c-4.08021,23.66163,14.13869,45.29581,38.15532,45.29581,9.41943,0,18.16098-3.38939,24.93976-9.10327,6.77939-5.71327,11.60835-13.7511,13.20938-23.03496l42.90047-248.70069c2.90502-16.87611,17.55397-29.20733,34.68212-29.20118l246.77672.11644c.90406,0,1.59488.8135,1.43953,1.70455l-7.03696,41.75116c-3.30557,19.58147-20.27167,33.91371-40.13719,33.90077l-42.77786-.03889c-.9102,0-1.59484-.81959-1.44017-1.71681l6.01095-33.82375c.15467-.89722-.52937-1.71688-1.43957-1.71688h-75.60075c-.71055,0-1.3169.50967-1.43957,1.20662l-6.18532,34.77948c-.12262.69703-.729,1.20724-1.43957,1.20724l-37.48361-.03266c-.71055,0-1.31754.51026-1.44634,1.20724l-13.422,74.78111c-.16145.89729.52938,1.72367,1.43957,1.72367l36.59313-.02588c.91023,0,1.60103.82644,1.44574,1.7175l-8.63801,48.58787c-2.77623,15.62387-16.35968,27.00606-32.22882,26.99311l-49.59545-.03879c-.70992,0-1.31691.51026-1.44633,1.20724l-13.42199,74.78049c-.16146.89786.52938,1.72427,1.43957,1.72427l49.88633-.02588c13.95811-.00677,24.53305,12.60173,22.09267,26.34726l-8.89622,50.07307-.10354.5682-13.00908,74.83223c-.15467.89115.53614,1.71076,1.43957,1.71076l352.55355.32296-.10351.60702h38.24591c23.3258,0,43.28131-16.74732,47.3295-39.7243l52.77835-299.94281.42583-2.41446c.25825-1.80746.39384-3.66051.39384-5.53892,0-21.38952-17.3408-38.73023-38.73648-38.73023M285.24964,353.14351l9.0059-50.71272c2.56979-14.46156,15.1395-24.99769,29.82729-25.00384l51.78436-.03266c.91023,0,1.60105.82636,1.44577,1.7175l-9.05093,50.79649c-2.57593,14.46783-15.16538,25.00393-29.85931,24.99098l-51.71348-.03822c-.91023,0-1.59488-.82027-1.43957-1.71756"/>
</svg>