<?xml version="1.0" encoding="UTF-8"?>
<svg id="Layer_1" xmlns="http://www.w3.org/2000/svg" version="1.1" viewBox="0 0 912.52 219.3">
  <!-- Generator: Adobe Illustrator 30.0.0, SVG Export Plug-In . SVG Version: 2.1.1 Build 123)  -->
  <defs>
    <style>
      .st0, .st1, .st2, .st3 {
        fill: #4f1670;
      }

      .st1 {
        font-size: 126.59px;
      }

      .st1, .st2, .st4, .st3 {
        isolation: isolate;
      }

      .st1, .st2, .st3 {
        font-family: Anton-Regular, Anton;
      }

      .st2 {
        font-size: 89.62px;
      }

      .st3 {
        font-size: 82.57px;
      }
    </style>
  </defs>
  <path class="st0" d="M216.8,62.18c-5.79,0-10.82,4-12.11,9.64l-17.98,78.34c-1.61,7.01-7.85,11.99-15.05,11.99h-75.86l4.22-18.2c1.14-4.94,5.54-8.43,10.6-8.43h17.99l-3.49,12.61h26.28l3.11-12.61h12.85l6.03-24.43h-13.35l4.21-17.9c.93-3.93,4.44-6.71,8.48-6.71h15.92l6.32-24.28h-16.38c-3.64,0-6.32-3.41-5.46-6.94l10.82-44.62h-113.94c-14.32,0-26.75,9.89-29.98,23.85l-19.87,86.05c-.22.93-.32,1.86-.32,2.77,0,6.57,5.34,12.22,12.25,12.22,5.7,0,10.65-3.93,11.93-9.49l19.01-82.35c1.19-5.14,5.76-8.78,11.04-8.78h77.77l-3.93,17c-1.39,6.01-6.74,10.27-12.92,10.27h-15.86l3-13.31h-25.67l-3.28,13.31h-12.64l-5.84,24.28h12.95l-4.11,17.82c-.92,3.97-4.46,6.79-8.54,6.79h-16.07l-5.99,24.43h16.32c3.62,0,6.29,3.37,5.48,6.89l-10.39,44.98h109.88c17.14,0,32.01-11.83,35.86-28.53l18.81-81.46c.22-.95.32-1.89.32-2.82,0-6.67-5.41-12.4-12.43-12.4h0ZM111.5,94.1c1.06-4.47,5.05-7.64,9.64-7.64h18.62l-4.09,18.26c-.83,3.72-4.13,6.36-7.94,6.36h-20.24l4-16.98h0Z"/>
  <g class="st4">
    <text class="st2" transform="translate(242.96 154.92)"><tspan x="0" y="0">#</tspan></text>
    <text class="st1" transform="translate(291.92 154.92)"><tspan x="0" y="0">HASH </tspan></text>
    <text class="st3" transform="translate(567.8 154.92)"><tspan x="0" y="0">iNfinite Lk</tspan></text>
  </g>
</svg>